<svg id="Layer_1" data-name="Layer 1" xmlns="http://www.w3.org/2000/svg" viewBox="0 0 514.32 375.63"><title>carepy</title><path d="M722.08,347.27a119.78,119.78,0,0,0-169.39,0L500,400l-52.69-52.69A119.78,119.78,0,0,0,277.92,516.66L414,652.78a118.78,118.78,0,0,0,84.65,35h2.62a118.79,118.79,0,0,0,84.65-35L722.08,516.66a119.78,119.78,0,0,0,0-169.39ZM382.25,554.44,311.2,483.39A72.72,72.72,0,1,1,414,380.54l52.69,52.69-50.16,50.16A118.84,118.84,0,0,0,382.25,554.44Zm167.91,65.07A71.84,71.84,0,0,1,449.84,516.66L500,466.5l50.16,50.16a72.73,72.73,0,0,1,0,102.85ZM688.8,483.39l-71,71.05a118.84,118.84,0,0,0-34.32-71.05l-50.16-50.16L586,380.54a72.72,72.72,0,0,1,102.84,0h0a72.72,72.72,0,0,1,0,102.84Z" transform="translate(-242.84 -312.19)"/></svg>