<svg xmlns="http://www.w3.org/2000/svg"  viewBox="0 0 40 40" width="40px" height="40px"><path fill="#4e7ab5" d="M20,28.9C8.598,28.9,0,25.17,0,20s8.598-9,20-9s20,3.83,20,9S31.402,28.9,20,28.9z M20,13.932 c-9.729,0-17.125,3.266-17.125,6.131S10.271,26.068,20,26.068s17.125-3.266,17.125-6.131S29.729,13.932,20,13.932z"/><path fill="#4e7ab5" d="M12.402,38C12.401,38,12.402,38,12.402,38c-0.931,0-1.781-0.216-2.528-0.642 c-1.22-0.697-2.095-1.928-2.532-3.562c-1.146-4.282,0.703-11.482,4.713-18.344C16.76,7.407,23.007,2.003,27.599,2.003 c0.93,0,1.78,0.216,2.527,0.642c1.218,0.695,2.094,1.925,2.531,3.558c1.147,4.282-0.703,11.483-4.715,18.345 C23.241,32.594,16.995,38,12.402,38z M27.599,5.003c-2.888,0-8.409,4.193-12.954,11.963c-4.123,7.056-5.332,12.909-4.404,16.054 c0.251,0.849,0.605,1.438,1.121,1.732c2.361,1.348,8.809-2.85,13.991-11.717c4.125-7.057,5.46-12.785,4.406-16.055 c-0.271-0.841-0.604-1.435-1.119-1.728C28.347,5.084,28.006,5.003,27.599,5.003z"/><path fill="#4e7ab5" d="M27.599,37.997C27.599,37.997,27.599,37.997,27.599,37.997c-4.597-0.001-10.843-5.405-15.544-13.449 c-4.01-6.862-5.859-14.063-4.713-18.344C7.779,4.57,8.654,3.339,9.873,2.643C10.621,2.216,11.471,2,12.4,2 c4.595,0,10.84,5.406,15.542,13.452c4.011,6.861,5.86,14.062,4.714,18.345c-0.438,1.633-1.313,2.863-2.53,3.558 C29.379,37.781,28.528,37.997,27.599,37.997z M12.4,5c-0.407,0-0.747,0.082-1.04,0.248c-0.515,0.294-0.874,0.881-1.12,1.732 c-0.928,3.208,0.281,8.999,4.404,16.055c4.541,7.769,10.063,11.962,12.954,11.962l0,0c0.408,0,0.748-0.082,1.041-0.249 c0.514-0.292,0.883-0.876,1.118-1.728c0.867-3.146-0.281-9-4.405-16.055C20.811,9.194,15.29,5,12.4,5z"/><path fill="#8bb7f0" d="M23.5,20c0,1.935-1.565,3.5-3.5,3.5s-3.5-1.565-3.5-3.5s1.565-3.5,3.5-3.5S23.5,18.065,23.5,20z"/><path fill="#4e7ab5" d="M20,24c-2.206,0-4-1.794-4-4s1.794-4,4-4s4,1.794,4,4S22.206,24,20,24z M20,17c-1.654,0-3,1.346-3,3 s1.346,3,3,3s3-1.346,3-3S21.654,17,20,17z"/><path fill="#8bb7f0" d="M20,28.068C9.346,28.068,1,24.524,1,20s8.346-8.068,19-8.068S39,15.476,39,20 S30.654,28.068,20,28.068z M20,12.932c-9.757,0-18,3.237-18,7.068s8.243,7.068,18,7.068S38,23.832,38,20S29.757,12.932,20,12.932z"/><path fill="#8bb7f0" d="M12.402,37C12.401,37,12.402,37,12.402,37c-0.755,0-1.438-0.172-2.033-0.511 c-0.996-0.569-1.689-1.562-2.062-2.952c-1.081-4.037,0.729-10.938,4.61-17.581C17.379,8.33,23.416,3.003,27.599,3.003 c0.754,0,1.438,0.172,2.032,0.511c0.995,0.568,1.688,1.56,2.061,2.948c1.081,4.037-0.729,10.938-4.612,17.582 C22.621,31.672,16.586,37,12.402,37z M27.599,4.003c-3.784,0-9.595,5.239-13.817,12.458c-3.695,6.325-5.507,13.083-4.508,16.818 c0.301,1.123,0.836,1.91,1.592,2.342C11.307,35.872,11.823,36,12.401,36c3.785,0,9.595-5.24,13.814-12.461 c3.697-6.326,5.51-13.085,4.509-16.818c-0.3-1.121-0.835-1.908-1.59-2.338C28.693,4.131,28.177,4.003,27.599,4.003z"/><g><path fill="#8bb7f0" d="M27.599,36.997C27.599,36.997,27.599,36.997,27.599,36.997c-4.187-0.001-10.224-5.327-14.681-12.953 C9.036,17.401,7.227,10.5,8.308,6.463c0.372-1.39,1.065-2.383,2.062-2.952C10.964,3.172,11.647,3,12.4,3 c4.185,0,10.221,5.328,14.679,12.956c3.883,6.642,5.692,13.543,4.61,17.582c-0.371,1.389-1.064,2.381-2.059,2.948 C29.036,36.825,28.353,36.997,27.599,36.997z M12.4,4c-0.577,0-1.094,0.128-1.535,0.379c-0.756,0.432-1.291,1.219-1.592,2.342 c-0.999,3.734,0.813,10.493,4.508,16.818C18,30.757,23.812,35.996,27.599,35.997l0,0c0.578,0,1.095-0.128,1.536-0.38 c0.754-0.43,1.289-1.217,1.589-2.338c1-3.735-0.812-10.494-4.508-16.818C21.996,9.241,16.187,4,12.4,4z"/></g></svg>